<svg width="39" height="38" viewBox="0 0 39 38" fill="none" xmlns="http://www.w3.org/2000/svg">
<rect width="39" height="38" rx="10" fill="#8CC554"/>
<path d="M27.7272 12.3412L19.6786 9.11224C19.4774 9.0329 19.2515 9.0329 19.0503 9.11224L11.0016 12.3412C10.6936 12.4642 10.4924 12.7538 10.4924 13.0751V16.9982C10.4924 22.401 13.872 27.2603 19.0503 29.3032C19.2474 29.3825 19.4732 29.3825 19.6704 29.3032C24.8527 27.2603 28.2323 22.401 28.2323 16.9982V13.0751C28.2323 12.7538 28.0311 12.4642 27.7272 12.3412ZM26.5897 16.9982C26.5897 21.5918 23.7973 25.8204 19.3624 27.7086C15.0465 25.8719 12.135 21.7187 12.135 16.9982V13.6026L19.3624 10.7029L26.5897 13.6026V16.9982ZM18.4548 19.6718L21.9864 16.2604C22.3067 15.951 22.8282 15.951 23.1485 16.2604C23.4688 16.5698 23.4688 17.0736 23.1485 17.383L19.0339 21.3538C18.7136 21.6632 18.192 21.6632 17.8717 21.3538L15.5762 19.1363C15.2559 18.8269 15.2559 18.3231 15.5762 18.0137C15.8965 17.7043 16.418 17.7043 16.7383 18.0137L18.4548 19.6718Z" fill="white"/>
</svg>
