<svg width="15" height="21" viewBox="0 0 15 21" fill="none" xmlns="http://www.w3.org/2000/svg">
<path d="M7.5 0C3.36569 0 0 3.39222 0 7.5591C0 12.7331 6.71116 20.3288 6.99838 20.6469C7.26537 20.9486 7.73463 20.9486 8.00162 20.6469C8.28883 20.3248 15 12.7331 15 7.5591C15.004 3.39222 11.6383 0 7.5 0ZM7.5 11.3631C5.42071 11.3631 3.72573 9.65478 3.72573 7.5591C3.72573 5.46343 5.42071 3.75509 7.5 3.75509C9.57929 3.75509 11.2743 5.46343 11.2743 7.5591C11.2743 9.65478 9.58333 11.3631 7.5 11.3631Z" fill="#8CC554"/>
</svg>
