<svg width="37" height="37" viewBox="0 0 37 37" fill="none" xmlns="http://www.w3.org/2000/svg">
<path d="M32.375 0H4.625C2.07402 0 0 2.07402 0 4.625V32.375C0 34.926 2.07402 37 4.625 37H32.375C34.926 37 37 34.926 37 32.375V4.625C37 2.07402 34.926 0 32.375 0Z" fill="#3B5999"/>
<path d="M25.4375 18.5V13.875C25.4375 12.5959 26.4709 12.7188 27.75 12.7188H30.0625V6.9375H25.4375C21.6074 6.9375 18.5 10.0449 18.5 13.875V18.5H13.875V24.2812H18.5V37H25.4375V24.2812H28.9062L31.2188 18.5H25.4375Z" fill="white"/>
</svg>
