<svg width="207" height="123" viewBox="0 0 207 123" fill="none" xmlns="http://www.w3.org/2000/svg">
<path d="M129.217 75.4551H75.3851C69.8219 75.4551 65.3223 70.9013 65.3223 65.2711V10.7905C65.3223 5.16029 69.8219 0.606445 75.3851 0.606445H129.217C134.78 0.606445 139.28 5.16029 139.28 10.7905V65.2711C139.28 70.9013 134.78 75.4551 129.217 75.4551Z" fill="#8DC154"/>
<path d="M111.54 38.8352L119.233 31.1503C120.06 30.3239 120.06 29.0844 119.233 28.2581L116.999 26.027C116.172 25.2006 114.931 25.2006 114.104 26.027L106.411 33.7119C105.584 34.5383 105.584 35.7778 106.411 36.6041L108.644 38.8352C109.472 39.6616 110.712 39.6616 111.54 38.8352Z" fill="white"/>
<path d="M93.3414 46.8502L81.1814 58.9974C80.3542 59.8238 80.3542 61.0633 81.1814 61.8896L83.4149 64.1207C84.2421 64.9471 85.4829 64.9471 86.3102 64.1207L98.4702 51.9735C99.2974 51.1472 99.2974 49.9077 98.4702 49.0813L96.2367 46.8502C95.4095 46.0239 94.1687 46.0239 93.3414 46.8502Z" fill="white"/>
<path d="M121.466 63.9565L123.534 61.8906C124.361 61.0643 124.361 59.6595 123.534 58.8332L95.9054 31.316C95.0782 30.4897 93.6719 30.4897 92.8447 31.316L90.7767 33.3819C89.9494 34.2082 89.9494 35.613 90.7767 36.4394L118.406 64.0391C119.315 64.8654 120.639 64.8654 121.466 63.9565Z" fill="white"/>
<path d="M106.99 18.2612L111.871 13.3858C112.946 12.3115 114.766 12.3115 115.841 13.3858L133.792 31.3173C134.867 32.3916 134.867 34.2095 133.792 35.2838L132.22 36.8538C132.137 36.9364 131.972 36.9364 131.889 36.8538C128.994 34.8706 125.354 34.3748 122.045 35.449L120.887 35.8622C120.805 35.8622 120.639 35.8622 120.556 35.7796L106.99 22.2276C105.915 21.1533 105.915 19.418 106.99 18.2612Z" fill="white"/>
<path d="M86.0616 39.6628C78.534 39.6628 72.4126 33.5478 72.4126 26.0282C72.4126 18.5085 78.534 12.3936 86.0616 12.3936C93.5892 12.3936 99.7106 18.5085 99.7106 26.0282C99.7106 33.5478 93.5892 39.6628 86.0616 39.6628ZM86.0616 18.6737C82.0082 18.6737 78.6994 21.9791 78.6994 26.0282C78.6994 30.0772 82.0082 33.3826 86.0616 33.3826C90.1149 33.3826 93.4238 30.0772 93.4238 26.0282C93.4238 21.9791 90.1149 18.6737 86.0616 18.6737Z" fill="white"/>
<path d="M86.0621 40.4883C78.0382 40.4883 71.5859 33.9602 71.5859 26.0273C71.5859 18.0945 78.1209 11.5664 86.0621 11.5664C94.0034 11.5664 100.538 18.0945 100.538 26.0273C100.538 33.9602 94.0861 40.4883 86.0621 40.4883ZM86.0621 13.2191C78.9481 13.2191 73.2404 19.0035 73.2404 26.0273C73.2404 33.0512 79.0308 38.8356 86.0621 38.8356C93.1762 38.8356 98.8839 33.0512 98.8839 26.0273C98.8839 19.0035 93.1762 13.2191 86.0621 13.2191Z" fill="white"/>
<path d="M0.859205 121.802C0.611041 121.554 0.52832 121.306 0.52832 121.058V91.5576C0.52832 91.2271 0.611041 90.9792 0.859205 90.8139C1.10737 90.6487 1.35553 90.4834 1.6037 90.4834H5.65703C5.98792 90.4834 6.23608 90.566 6.40152 90.8139C6.56696 90.9792 6.73241 91.2271 6.73241 91.5576V101.722C8.55227 99.5731 10.9512 98.4989 13.9291 98.4989C16.6589 98.4989 18.8924 99.4079 20.4641 101.226C22.1185 103.044 22.9458 105.44 22.9458 108.58V121.141C22.9458 121.471 22.863 121.719 22.6149 121.884C22.4494 122.132 22.2013 122.215 21.8704 122.215H17.817C17.4862 122.215 17.238 122.132 16.9898 121.884C16.7417 121.636 16.6589 121.388 16.6589 121.141V108.828C16.6589 107.093 16.2453 105.771 15.4181 104.779C14.5909 103.787 13.3501 103.292 11.7784 103.292C10.2894 103.292 9.0486 103.787 8.13867 104.779C7.22873 105.771 6.73241 107.093 6.73241 108.828V121.141C6.73241 121.471 6.64969 121.719 6.40152 121.884C6.15336 122.05 5.98792 122.215 5.65703 122.215H1.6037C1.27281 122.132 1.02465 121.967 0.859205 121.802Z" fill="#333333"/>
<path d="M31.2174 121.636C29.9766 121.058 28.9839 120.232 28.2394 119.157C27.4949 118.083 27.1641 117.009 27.1641 115.687C27.1641 113.704 27.9913 112.051 29.6457 110.811C31.3001 109.572 33.5336 108.745 36.4288 108.25L42.5502 107.341V106.432C42.5502 105.192 42.2193 104.201 41.5575 103.54C40.8958 102.878 39.8204 102.548 38.4141 102.548C37.4215 102.548 36.677 102.713 36.0152 103.044C35.4362 103.374 34.9398 103.787 34.5262 104.118C34.1126 104.531 33.9472 104.696 33.7818 104.862C33.699 105.192 33.4509 105.357 33.12 105.357H29.6457C29.3975 105.357 29.1494 105.275 28.9839 105.11C28.8185 104.944 28.653 104.696 28.653 104.366C28.653 103.622 29.0666 102.796 29.7284 101.804C30.3902 100.895 31.5483 100.069 32.9545 99.3252C34.4435 98.6641 36.1807 98.251 38.3314 98.251C41.8057 98.251 44.3701 99.0773 46.0245 100.647C47.5962 102.217 48.4234 104.283 48.4234 106.845V120.893C48.4234 121.223 48.3407 121.471 48.0925 121.636C47.8443 121.802 47.6789 121.967 47.348 121.967H43.6256C43.2947 121.967 43.0465 121.884 42.8811 121.636C42.6329 121.388 42.5502 121.141 42.5502 120.893V119.157C41.8884 120.149 40.9785 120.893 39.8204 121.471C38.6623 122.05 37.1733 122.38 35.3535 122.38C33.8645 122.545 32.4582 122.215 31.2174 121.636ZM40.8958 116.678C41.9711 115.604 42.4675 114.034 42.4675 112.051V111.142L38.0005 111.886C34.609 112.381 32.8718 113.538 32.8718 115.356C32.8718 116.348 33.2854 117.009 34.0299 117.587C34.8571 118.083 35.7671 118.331 36.8424 118.331C38.4969 118.248 39.9031 117.753 40.8958 116.678Z" fill="#333333"/>
<path d="M56.3643 119.82C54.379 118.002 53.3863 115.523 53.2209 112.3L53.1382 110.483L53.2209 108.665C53.3036 105.442 54.379 102.963 56.3643 101.145C58.3496 99.3269 60.914 98.418 64.2228 98.418C66.539 98.418 68.5243 98.8311 70.1787 99.6575C71.8332 100.484 72.9913 101.475 73.8185 102.715C74.6457 103.954 75.0593 105.111 75.0593 106.186C75.0593 106.516 74.9766 106.764 74.7284 106.929C74.4802 107.177 74.2321 107.26 73.9839 107.26H70.0133C69.6824 107.26 69.4342 107.177 69.2688 107.095C69.1034 106.929 68.9379 106.681 68.8552 106.351C68.4416 105.194 67.7798 104.368 67.1181 103.872C66.3736 103.376 65.4636 103.128 64.3055 103.128C62.8166 103.128 61.5757 103.624 60.7485 104.533C59.9213 105.524 59.425 106.929 59.425 108.912L59.3423 110.565L59.425 112.053C59.5904 115.936 61.2449 117.837 64.3055 117.837C65.4636 117.837 66.3736 117.589 67.1181 117.093C67.8625 116.597 68.4416 115.771 68.8552 114.614C68.9379 114.284 69.1034 114.036 69.2688 113.871C69.4342 113.705 69.6824 113.623 70.0133 113.623H73.9839C74.3148 113.623 74.563 113.705 74.7284 113.953C74.9766 114.201 75.0593 114.449 75.0593 114.697C74.9766 115.771 74.563 116.845 73.8185 118.085C73.074 119.324 71.8332 120.316 70.2615 121.225C68.6898 122.051 66.6217 122.547 64.2228 122.547C60.914 122.547 58.3496 121.638 56.3643 119.82Z" fill="#333333"/>
<path d="M80.1063 121.802C79.8581 121.554 79.7754 121.306 79.7754 121.058V91.5576C79.7754 91.2271 79.8581 90.9792 80.1063 90.8139C80.3544 90.6487 80.6026 90.4834 80.8508 90.4834H84.5732C84.9041 90.4834 85.1523 90.566 85.3177 90.8139C85.5659 91.0618 85.6486 91.3097 85.6486 91.5576V106.845L93.0935 99.7384C93.1762 99.6558 93.3417 99.5731 93.5071 99.4079C93.6725 99.2426 93.9207 99.16 94.0861 99.0773C94.2516 98.9947 94.4997 98.9947 94.7479 98.9947H98.9667C99.2976 98.9947 99.463 99.0773 99.7112 99.2426C99.8766 99.4079 99.9593 99.6558 99.9593 99.9863C99.9593 100.234 99.7939 100.482 99.5457 100.813L90.4464 109.407L100.704 120.48C100.952 120.727 101.117 120.975 101.117 121.223C101.117 121.554 101.035 121.719 100.869 121.967C100.704 122.132 100.456 122.215 100.208 122.215H95.906C95.4924 122.215 95.1615 122.132 94.9961 122.05C94.8306 121.967 94.5825 121.719 94.2516 121.471L85.814 112.464V121.141C85.814 121.471 85.7313 121.719 85.4831 121.884C85.235 122.132 84.9868 122.215 84.7387 122.215H81.0162C80.5199 122.132 80.2717 121.967 80.1063 121.802Z" fill="#333333"/>
<path d="M109.224 120.976L102.854 100.235C102.854 100.152 102.771 99.987 102.771 99.8217C102.771 99.5738 102.854 99.3259 103.02 99.1606C103.185 98.9953 103.433 98.8301 103.681 98.8301H107.073C107.404 98.8301 107.652 98.9127 107.817 99.078C108.066 99.2433 108.148 99.4912 108.231 99.6564L112.533 114.365L117.165 99.8217C117.248 99.5738 117.413 99.3259 117.661 99.1606C117.909 98.9953 118.158 98.8301 118.571 98.8301H120.887C121.218 98.8301 121.549 98.9127 121.797 99.1606C122.046 99.3259 122.128 99.5738 122.211 99.8217L126.843 114.365L131.145 99.6564C131.228 99.4085 131.31 99.2433 131.558 99.078C131.807 98.9127 132.055 98.8301 132.386 98.8301H135.694C135.943 98.8301 136.191 98.9127 136.356 99.1606C136.522 99.4085 136.687 99.5738 136.687 99.8217L136.604 100.235L130.235 120.976C130.152 121.307 129.904 121.637 129.739 121.802C129.573 121.968 129.242 122.133 128.829 122.133H125.851C125.106 122.133 124.61 121.72 124.362 121.059L119.729 107.011L115.097 121.059C114.849 121.802 114.352 122.133 113.608 122.133H110.713C109.968 122.133 109.472 121.72 109.224 120.976Z" fill="#333333"/>
<path d="M142.56 119.903C140.658 118.085 139.665 115.688 139.5 112.466L139.417 110.483L139.5 108.499C139.665 105.359 140.658 102.88 142.643 101.145C144.628 99.4096 147.276 98.418 150.75 98.418C154.141 98.418 156.871 99.3269 158.774 101.145C160.676 102.963 161.752 105.442 161.917 108.499C161.917 108.83 162 109.491 162 110.483C162 111.474 162 112.053 161.917 112.466C161.752 115.606 160.759 118.085 158.856 119.903C156.954 121.721 154.224 122.547 150.75 122.547C147.193 122.547 144.463 121.638 142.56 119.903ZM154.307 116.597C155.134 115.606 155.63 114.201 155.63 112.3C155.63 111.97 155.713 111.391 155.713 110.565C155.713 109.739 155.713 109.16 155.63 108.83C155.548 106.929 155.134 105.442 154.224 104.45C153.397 103.459 152.156 102.963 150.584 102.963C149.013 102.963 147.772 103.459 146.945 104.45C146.117 105.442 145.621 106.929 145.538 108.83L145.456 110.565L145.538 112.3C145.621 114.201 146.035 115.606 146.945 116.597C147.772 117.589 149.013 118.085 150.584 118.085C152.321 118.085 153.48 117.589 154.307 116.597Z" fill="#333333"/>
<path d="M167.211 121.802C166.963 121.554 166.88 121.306 166.88 121.058V100.069C166.88 99.7384 166.963 99.4905 167.211 99.2426C167.459 98.9947 167.708 98.9121 167.956 98.9121H171.595C171.926 98.9121 172.175 98.9947 172.423 99.2426C172.671 99.4905 172.754 99.7384 172.754 100.069V101.887C174.243 99.9037 176.393 98.9121 179.206 98.9121H181.108C181.439 98.9121 181.687 98.9947 181.853 99.2426C182.018 99.4079 182.184 99.6558 182.184 99.9863V103.209C182.184 103.54 182.101 103.788 181.853 103.953C181.687 104.201 181.439 104.283 181.108 104.283H177.551C176.145 104.283 175.07 104.696 174.243 105.523C173.415 106.349 173.002 107.423 173.002 108.828V121.058C173.002 121.389 172.919 121.636 172.671 121.802C172.423 122.05 172.175 122.132 171.926 122.132H167.956C167.625 122.132 167.377 121.967 167.211 121.802Z" fill="#333333"/>
<path d="M185.989 121.802C185.74 121.554 185.658 121.306 185.658 121.058V91.5576C185.658 91.2271 185.74 90.9792 185.989 90.8139C186.237 90.6487 186.485 90.4834 186.733 90.4834H190.456C190.786 90.4834 191.035 90.566 191.2 90.8139C191.448 91.0618 191.531 91.3097 191.531 91.5576V106.845L198.976 99.7384C199.059 99.6558 199.224 99.5731 199.389 99.4079C199.555 99.2426 199.803 99.16 199.968 99.0773C200.134 98.9947 200.382 98.9947 200.63 98.9947H204.849C205.18 98.9947 205.345 99.0773 205.594 99.2426C205.759 99.4079 205.842 99.6558 205.842 99.9863C205.842 100.234 205.676 100.482 205.428 100.813L196.329 109.407L206.586 120.48C206.834 120.727 207 120.975 207 121.223C207 121.554 206.917 121.719 206.752 121.967C206.586 122.132 206.338 122.215 206.09 122.215H201.788C201.375 122.215 201.044 122.132 200.878 122.05C200.713 121.967 200.465 121.719 200.134 121.471L191.696 112.464V121.141C191.696 121.471 191.614 121.719 191.365 121.884C191.117 122.132 190.869 122.215 190.621 122.215H186.899C186.402 122.132 186.154 121.967 185.989 121.802Z" fill="#333333"/>
</svg>
