<svg width="29" height="30" viewBox="0 0 29 30" fill="none" xmlns="http://www.w3.org/2000/svg">
<g clip-path="url(#clip0)">
<path d="M29 15.2994C29 14.0994 28.852 13.1994 28.7041 12.1494H14.7959V17.6994H22.9337C22.7857 19.1994 21.8979 21.1494 19.9745 22.4994V26.0994H24.7092C27.3724 23.6994 29 19.9494 29 15.2994Z" fill="#4285F4"/>
<path d="M19.9745 22.65C18.7908 23.55 17.0153 24.15 14.7959 24.15C10.949 24.15 7.54593 21.6 6.36226 18H1.62756V21.75C3.99491 26.55 9.02552 30 14.7959 30C18.7908 30 22.1939 28.65 24.5612 26.4L19.9745 22.65Z" fill="#34A853"/>
<path d="M5.91837 15C5.91837 13.95 6.06633 12.9 6.36225 12V8.25H1.62755C0.591837 10.35 0 12.6 0 15C0 17.4 0.591837 19.65 1.62755 21.75L6.36225 18C6.06633 16.95 5.91837 16.05 5.91837 15Z" fill="#FBBC05"/>
<path d="M14.7959 5.85C17.6072 5.85 19.3827 7.05 20.5663 8.1L24.7092 3.9C22.1939 1.5 18.7908 0 14.7959 0C9.02552 0 3.99491 3.3 1.62756 8.25L6.36226 12C7.54593 8.4 10.949 5.85 14.7959 5.85Z" fill="#EA4335"/>
</g>
<defs>
<clipPath id="clip0">
<rect width="29" height="30" fill="white"/>
</clipPath>
</defs>
</svg>
