<svg width="81" height="105" viewBox="0 0 81 105" fill="none" xmlns="http://www.w3.org/2000/svg">
<g clip-path="url(#clip0)">
<path d="M0 91.6699H40.3058C39.1204 96.9404 39.243 101.165 39.243 105H9.19758C4.12869 105 0 100.857 0 95.7715V91.6699Z" fill="#8CC554"/>
<path d="M58.4557 9.22852V55.125L52.3649 48.9521C48.6041 45.1787 42.5337 45.1992 38.7729 48.9521C35.0121 52.7256 35.0326 58.8164 38.7525 62.5693L50.5049 74.8125C47.95 76.7197 44.6593 80.042 42.2884 85.5176H0V9.22852C0 4.14258 4.12869 0 9.19758 0H49.2581C54.327 0 58.4557 4.14258 58.4557 9.22852Z" fill="#8CC554"/>
<path d="M80.4688 73.9922L74.7458 102.519C74.4597 103.934 73.2129 104.979 71.7413 104.979H45.3749C45.3749 101.145 45.2318 96.8174 46.6421 91.6494C47.521 88.4707 48.8904 85.4356 50.9548 82.8721C53.5914 79.5908 56.2689 78.4219 56.4733 78.3398C58.5172 77.6016 59.1713 74.9766 57.5975 73.3359L43.1675 58.2832C40.8988 56.0273 42.5134 52.2949 45.5793 52.2949C46.4991 52.2949 47.3779 52.6641 48.032 53.2998C48.032 53.2998 52.6103 57.9961 62.7072 68.1475C63.9131 69.3574 65.8549 69.3369 67.0403 68.1475C68.2462 66.9375 68.2462 64.9893 67.0403 63.7998L64.5876 61.3389V40.9746C74.1122 50.5312 73.8465 50.2236 74.8072 51.3721C79.8556 57.4014 82.1243 65.6865 80.4688 73.9922Z" fill="#8CC554"/>
</g>
<defs>
<clipPath id="clip0">
<rect width="81" height="105" fill="white"/>
</clipPath>
</defs>
</svg>
