<svg width="98" height="98" viewBox="0 0 98 98" fill="none" xmlns="http://www.w3.org/2000/svg">
<path d="M91.5303 30.9696C89.4248 28.8642 86.0943 28.7302 83.8357 30.5677C83.5104 30.8356 83.7592 30.606 78.8018 35.5634L91.6834 48.445L96.3154 43.8704C98.5549 41.6309 98.5549 37.9942 96.3154 35.7548L91.5303 30.9696Z" fill="#8CC554"/>
<path d="M52.3877 62.2262L44.808 78.4766C44.2912 79.5676 44.5209 80.8691 45.3822 81.7305C46.2435 82.5918 47.5259 82.8215 48.617 82.3047L64.8673 74.725C65.5181 74.4187 63.5658 76.2371 87.6064 52.5027L74.7439 39.6211C50.8947 63.4703 52.6939 61.5754 52.3877 62.2262Z" fill="#8CC554"/>
<path d="M69.691 78.2469C68.9828 78.9359 68.1789 79.5102 67.2793 79.9313L51.0289 87.5109C47.8324 89.0039 43.9277 88.4297 41.3055 85.7883C38.7598 83.2426 38.0707 79.3187 39.5828 76.0457L47.1625 59.7953C47.5836 58.8766 48.1578 58.0535 48.8852 57.3453L73.3086 32.941V8.61328C73.3086 3.86641 69.4422 0 64.6953 0H8.61328C3.86641 0 0 3.86641 0 8.61328V89.3867C0 94.1336 3.86641 98 8.61328 98H64.6953C69.4422 98 73.3086 94.1336 73.3086 89.3867V74.6676L69.691 78.2469ZM15.3125 18.5664H58.1875C59.7762 18.5664 61.0586 19.8488 61.0586 21.4375C61.0586 23.0262 59.7762 24.3086 58.1875 24.3086H15.3125C13.7238 24.3086 12.4414 23.0262 12.4414 21.4375C12.4414 19.8488 13.7238 18.5664 15.3125 18.5664ZM15.3125 33.8789H49C50.5887 33.8789 51.8711 35.1613 51.8711 36.75C51.8711 38.3387 50.5887 39.6211 49 39.6211H15.3125C13.7238 39.6211 12.4414 38.3387 12.4414 36.75C12.4414 35.1613 13.7238 33.8789 15.3125 33.8789ZM12.4414 52.0625C12.4414 50.4738 13.7238 49.1914 15.3125 49.1914H39.8125C41.4012 49.1914 42.6836 50.4738 42.6836 52.0625C42.6836 53.6512 41.4012 54.9336 39.8125 54.9336H15.3125C13.7238 54.9336 12.4414 53.6512 12.4414 52.0625Z" fill="#8CC554"/>
</svg>
