<svg width="87" height="106" viewBox="0 0 87 106" fill="none" xmlns="http://www.w3.org/2000/svg">
<path d="M27.605 98.7539C34.1197 108.422 47.9737 108.402 54.4678 98.7539H27.605Z" fill="#8CC554"/>
<path d="M72.2595 63.4132C71.3318 62.4816 70.6927 61.3429 70.3422 60.08C52.0969 64.0757 34.9443 50.039 34.9443 31.4683C34.9443 18.798 42.9846 7.99096 54.1998 3.91245C45.005 -2.00865 32.8002 -1.28404 24.2652 6.64526C19.6884 10.8894 16.8434 16.6449 16.2455 22.8351C11.7306 60.4941 11.9367 58.7964 11.9367 58.8585C11.7718 60.5769 11.009 62.171 9.81327 63.3925L3.99953 69.2308C1.42251 71.8187 0 75.2554 0 78.8992C0 86.4144 6.10237 92.5425 13.586 92.5425H68.4661C75.9498 92.5425 82.0521 86.4144 82.0521 78.8992C82.0521 75.2554 80.6296 71.8187 78.0732 69.2515L72.2595 63.4132Z" fill="#8CC554"/>
<path d="M86.9998 31.4681C86.9998 17.1208 73.9085 6.12748 59.7865 8.79818C49.1692 10.8271 41.1289 20.2263 41.1289 31.4681C41.1289 46.333 55.0242 57.4298 69.5379 53.9103C79.5573 51.4466 86.9998 42.2751 86.9998 31.4681ZM68.8576 39.7494C68.8576 41.4677 67.4763 42.8548 65.7652 42.8548C64.054 42.8548 62.6727 41.4677 62.6727 39.7494V26.2923H59.7659C58.0547 26.2923 56.6735 24.9052 56.6735 23.1869C56.6735 21.4685 58.0547 20.0814 59.7659 20.0814H65.7652C67.4763 20.0814 68.8576 21.4685 68.8576 23.1869V39.7494Z" fill="#5466C5"/>
</svg>
