<svg width="484" height="122" viewBox="0 0 484 122" fill="none" xmlns="http://www.w3.org/2000/svg">
<g clip-path="url(#clip0)">
<path d="M106.781 121.585H16.8169C7.51977 121.585 0 114.187 0 105.042V16.543C0 7.39729 7.51977 0 16.8169 0H106.781C116.078 0 123.598 7.39729 123.598 16.543V105.042C123.598 114.187 116.078 121.585 106.781 121.585Z" fill="#8DC154"/>
<path d="M77.1121 62.0021L89.8274 49.494C91.1946 48.149 91.1946 46.1316 89.8274 44.7866L86.1358 41.1552C84.7686 39.8102 82.7178 39.8102 81.3505 41.1552L68.6353 53.6633C67.2681 55.0083 67.2681 57.0258 68.6353 58.3707L72.3268 62.0021C73.694 63.3471 75.8816 63.3471 77.1121 62.0021Z" fill="white"/>
<path d="M47.0329 75.0478L26.9346 94.8187C25.5674 96.1637 25.5674 98.1811 26.9346 99.5261L30.6261 103.157C31.9934 104.502 34.0442 104.502 35.4114 103.157L55.5097 83.3866C56.877 82.0416 56.877 80.0241 55.5097 78.6792L51.8182 75.0478C50.5877 73.7028 48.4001 73.7028 47.0329 75.0478Z" fill="white"/>
<path d="M93.655 102.889L97.0731 99.5262C98.4403 98.1813 98.4403 95.8948 97.0731 94.5499L51.4075 49.7626C50.0403 48.4177 47.716 48.4177 46.3488 49.7626L42.9307 53.125C41.5635 54.47 41.5635 56.7564 42.9307 58.1014L88.5962 103.023C89.9635 104.368 92.2878 104.368 93.655 102.889Z" fill="white"/>
<path d="M69.5923 28.5132L77.659 20.5779C79.4364 18.8295 82.4443 18.8295 84.2217 20.5779L113.891 49.7636C115.668 51.512 115.668 54.471 113.891 56.2194L111.293 58.7748C111.156 58.9093 110.883 58.9093 110.746 58.7748C105.961 55.5469 99.9449 54.74 94.4759 56.4884L92.5618 57.1609C92.4251 57.1609 92.1517 57.1609 92.0149 57.0264L69.5923 34.969C67.8149 33.2206 67.8149 30.3962 69.5923 28.5132Z" fill="white"/>
<path d="M35.1384 63.3466C22.6966 63.3466 12.5791 53.3939 12.5791 41.1548C12.5791 28.9156 22.6966 18.9629 35.1384 18.9629C47.5802 18.9629 57.6978 28.9156 57.6978 41.1548C57.6978 53.3939 47.5802 63.3466 35.1384 63.3466ZM35.1384 29.1846C28.439 29.1846 22.9701 34.5644 22.9701 41.1548C22.9701 47.7451 28.439 53.1249 35.1384 53.1249C41.8379 53.1249 47.3068 47.7451 47.3068 41.1548C47.1701 34.5644 41.8379 29.1846 35.1384 29.1846Z" fill="white"/>
<path d="M35.138 64.6918C21.8758 64.6918 11.2114 54.0666 11.2114 41.155C11.2114 28.2434 21.8758 17.6182 35.138 17.6182C48.4001 17.6182 59.0645 28.2434 59.0645 41.155C59.0645 54.0666 48.2634 64.6918 35.138 64.6918ZM35.138 20.3081C23.3798 20.3081 13.9459 29.7228 13.9459 41.155C13.9459 52.5872 23.5165 62.0019 35.138 62.0019C46.8962 62.0019 56.3301 52.5872 56.3301 41.155C56.3301 29.7228 46.7594 20.3081 35.138 20.3081Z" fill="white"/>
<path d="M143.56 89.5746C143.149 89.1711 143.013 88.7677 143.013 88.3642V40.349C143.013 39.8111 143.149 39.4076 143.56 39.1386C143.97 38.8696 144.38 38.6006 144.79 38.6006H151.49C152.036 38.6006 152.447 38.7351 152.72 39.1386C152.993 39.4076 153.267 39.8111 153.267 40.349V56.8921C156.275 53.3952 160.24 51.6467 165.162 51.6467C169.674 51.6467 173.365 53.1262 175.963 56.0851C178.697 59.044 180.065 62.9444 180.065 68.0552V88.4987C180.065 89.0367 179.928 89.4401 179.518 89.7091C179.244 90.1126 178.834 90.2471 178.287 90.2471H171.588C171.041 90.2471 170.631 90.1126 170.221 89.7091C169.81 89.3056 169.674 88.9022 169.674 88.4987V68.4587C169.674 65.6343 168.99 63.4824 167.623 61.8684C166.256 60.2545 164.205 59.4475 161.607 59.4475C159.146 59.4475 157.095 60.2545 155.591 61.8684C154.087 63.4824 153.267 65.6343 153.267 68.4587V88.4987C153.267 89.0367 153.13 89.4401 152.72 89.7091C152.31 89.9781 152.036 90.2471 151.49 90.2471H144.79C144.243 90.1126 143.833 89.9781 143.56 89.5746Z" fill="#333333"/>
<path d="M193.737 89.3056C191.686 88.3641 190.045 87.0192 188.815 85.2707C187.584 83.5223 187.037 81.7738 187.037 79.6219C187.037 76.394 188.404 73.704 191.139 71.6866C193.873 69.6691 197.565 68.3242 202.35 67.5172L212.468 66.0377V64.5583C212.468 62.5408 211.921 60.9269 210.827 59.8509C209.733 58.775 207.956 58.237 205.631 58.237C203.991 58.237 202.76 58.506 201.666 59.0439C200.709 59.5819 199.889 60.2544 199.205 60.7924C198.522 61.4649 198.248 61.7339 197.975 62.0029C197.838 62.5408 197.428 62.8098 196.881 62.8098H191.139C190.729 62.8098 190.318 62.6753 190.045 62.4064C189.772 62.1374 189.498 61.7339 189.498 61.1959C189.498 59.9854 190.182 58.6405 191.276 57.0265C192.369 55.547 194.283 54.2021 196.608 52.9916C199.069 51.9156 201.94 51.2432 205.495 51.2432C211.237 51.2432 215.476 52.5881 218.21 55.1436C220.808 57.699 222.175 61.0614 222.175 65.2308V88.0951C222.175 88.6331 222.038 89.0366 221.628 89.3056C221.218 89.5746 220.944 89.8436 220.398 89.8436H214.245C213.698 89.8436 213.288 89.7091 213.015 89.3056C212.604 88.9021 212.468 88.4986 212.468 88.0951V85.2707C211.374 86.8847 209.87 88.0951 207.956 89.0366C206.042 89.9781 203.581 90.5161 200.573 90.5161C198.112 90.9195 195.787 90.3816 193.737 89.3056ZM209.733 81.2358C211.511 79.4874 212.331 76.9319 212.331 73.704V72.2246L204.948 73.435C199.342 74.242 196.471 76.125 196.471 79.0839C196.471 80.6978 197.155 81.7738 198.385 82.7153C199.752 83.5223 201.256 83.9257 203.034 83.9257C205.768 83.9257 207.956 82.9843 209.733 81.2358Z" fill="#333333"/>
<path d="M235.301 86.48C232.02 83.5211 230.379 79.4862 230.105 74.2409L229.969 71.2819L230.105 68.323C230.242 63.0777 232.02 59.0428 235.301 56.0839C238.582 53.125 242.821 51.6455 248.29 51.6455C252.118 51.6455 255.399 52.318 258.134 53.6629C260.868 55.0079 262.782 56.6219 264.15 58.6393C265.517 60.6567 266.2 62.5397 266.2 64.2881C266.2 64.8261 266.064 65.2296 265.654 65.4986C265.243 65.9021 264.833 66.0366 264.423 66.0366H257.86C257.313 66.0366 256.903 65.9021 256.63 65.7676C256.356 65.4986 256.083 65.0951 255.946 64.5571C255.263 62.6742 254.169 61.3292 253.075 60.5222C251.844 59.7153 250.341 59.3118 248.426 59.3118C245.965 59.3118 243.915 60.1188 242.547 61.5982C241.18 63.2122 240.36 65.4986 240.36 68.7265L240.223 71.4164L240.36 73.8374C240.633 80.1587 243.368 83.2521 248.426 83.2521C250.341 83.2521 251.844 82.8486 253.075 82.0416C254.305 81.2347 255.263 79.8897 255.946 78.0067C256.083 77.4688 256.356 77.0653 256.63 76.7963C256.903 76.5273 257.313 76.3928 257.86 76.3928H264.423C264.97 76.3928 265.38 76.5273 265.654 76.9308C266.064 77.3343 266.2 77.7378 266.2 78.1412C266.064 79.8897 265.38 81.6381 264.15 83.6556C262.919 85.673 260.868 87.287 258.27 88.7664C255.673 90.1114 252.255 90.9184 248.29 90.9184C242.821 90.9184 238.582 89.4389 235.301 86.48Z" fill="#333333"/>
<path d="M274.541 89.5746C274.13 89.1711 273.994 88.7677 273.994 88.3642V40.349C273.994 39.8111 274.13 39.4076 274.541 39.1386C274.951 38.8696 275.361 38.6006 275.771 38.6006H281.924C282.47 38.6006 282.881 38.7351 283.154 39.1386C283.564 39.5421 283.701 39.9455 283.701 40.349V65.2308L296.006 53.6642C296.143 53.5297 296.416 53.3952 296.69 53.1262C296.963 52.8572 297.373 52.7227 297.647 52.5882C297.92 52.4537 298.33 52.4537 298.741 52.4537H305.713C306.26 52.4537 306.534 52.5882 306.944 52.8572C307.217 53.1262 307.354 53.5297 307.354 54.0676C307.354 54.4711 307.081 54.8746 306.67 55.4126L291.631 69.4002L308.585 87.4227C308.995 87.8262 309.268 88.2297 309.268 88.6332C309.268 89.1711 309.131 89.4401 308.858 89.8436C308.585 90.1126 308.174 90.2471 307.764 90.2471H300.655C299.971 90.2471 299.424 90.1126 299.151 89.9781C298.877 89.8436 298.467 89.4401 297.92 89.0366L283.974 74.3766V88.4987C283.974 89.0367 283.838 89.4401 283.428 89.7091C283.017 90.1126 282.607 90.2471 282.197 90.2471H276.044C275.224 90.1126 274.814 89.9781 274.541 89.5746Z" fill="#333333"/>
<path d="M322.667 88.3643L312.139 54.6058C312.139 54.4713 312.002 54.2023 312.002 53.9333C312.002 53.5298 312.139 53.1263 312.413 52.8573C312.686 52.5883 313.096 52.3193 313.506 52.3193H319.112C319.659 52.3193 320.069 52.4538 320.343 52.7228C320.753 52.9918 320.889 53.3953 321.026 53.6643L328.136 77.6046L335.792 53.9333C335.929 53.5298 336.202 53.1263 336.613 52.8573C337.023 52.5883 337.433 52.3193 338.117 52.3193H341.945C342.492 52.3193 343.039 52.4538 343.449 52.8573C343.859 53.1263 343.996 53.5298 344.132 53.9333L351.789 77.6046L358.899 53.6643C359.035 53.2608 359.172 52.9918 359.582 52.7228C359.992 52.4538 360.402 52.3193 360.949 52.3193H366.418C366.828 52.3193 367.239 52.4538 367.512 52.8573C367.786 53.2608 368.059 53.5298 368.059 53.9333L367.922 54.6058L357.395 88.3643C357.258 88.9023 356.848 89.4403 356.574 89.7093C356.301 89.9782 355.754 90.2472 355.07 90.2472H350.148C348.918 90.2472 348.097 89.5748 347.687 88.4988L340.031 65.6345L332.374 88.4988C331.964 89.7093 331.144 90.2472 329.913 90.2472H325.128C323.897 90.1127 323.077 89.5748 322.667 88.3643Z" fill="#333333"/>
<path d="M377.766 86.4817C374.622 83.5228 372.981 79.6224 372.708 74.377L372.571 71.1491L372.708 67.9212C372.981 62.8104 374.622 58.7755 377.903 55.9511C381.184 53.1266 385.56 51.5127 391.302 51.5127C396.908 51.5127 401.419 52.9922 404.564 55.9511C407.709 58.91 409.486 62.9449 409.76 67.9212C409.76 68.4592 409.896 69.5352 409.896 71.1491C409.896 72.7631 409.896 73.7046 409.76 74.377C409.486 79.4879 407.845 83.5228 404.701 86.4817C401.556 89.4406 397.044 90.7856 391.302 90.7856C385.423 90.9201 380.911 89.4406 377.766 86.4817ZM397.181 81.1018C398.548 79.4879 399.369 77.2015 399.369 74.108C399.369 73.5701 399.505 72.6286 399.505 71.2836C399.505 69.9387 399.505 68.9972 399.369 68.4592C399.232 65.3658 398.548 62.9449 397.044 61.3309C395.677 59.717 393.626 58.91 391.028 58.91C388.431 58.91 386.38 59.717 385.013 61.3309C383.645 62.9449 382.825 65.3658 382.688 68.4592L382.825 71.2836L382.962 74.108C383.098 77.2015 383.782 79.4879 385.286 81.1018C386.653 82.7158 388.704 83.5228 391.302 83.5228C393.763 83.5228 395.814 82.7158 397.181 81.1018Z" fill="#333333"/>
<path d="M418.51 89.5748C418.1 89.1713 417.963 88.7678 417.963 88.3643V54.2023C417.963 53.6643 418.1 53.2608 418.51 52.8573C418.92 52.4538 419.33 52.3193 419.74 52.3193H425.756C426.303 52.3193 426.713 52.4538 427.123 52.8573C427.533 53.2608 427.67 53.6643 427.67 54.2023V57.1612C430.131 53.9333 433.686 52.3193 438.335 52.3193H441.479C442.026 52.3193 442.436 52.4538 442.71 52.8573C442.983 53.1263 443.257 53.5298 443.257 54.0678V59.3131C443.257 59.8511 443.12 60.2546 442.71 60.5236C442.436 60.9271 442.026 61.0616 441.479 61.0616H435.6C433.276 61.0616 431.498 61.7341 430.131 63.079C428.764 64.424 428.08 66.1724 428.08 68.4589V88.3643C428.08 88.9023 427.944 89.3058 427.533 89.5748C427.123 89.9783 426.713 90.1128 426.303 90.1128H419.74C419.193 90.1128 418.783 89.9783 418.51 89.5748Z" fill="#333333"/>
<path d="M449.409 89.5746C448.999 89.1711 448.862 88.7677 448.862 88.3642V40.349C448.862 39.8111 448.999 39.4076 449.409 39.1386C449.819 38.8696 450.23 38.6006 450.64 38.6006H456.792C457.339 38.6006 457.749 38.7351 458.023 39.1386C458.433 39.5421 458.57 39.9455 458.57 40.349V65.2308L470.875 53.6642C471.011 53.5297 471.285 53.3952 471.558 53.1262C471.832 52.8572 472.242 52.7227 472.515 52.5882C472.789 52.4537 473.199 52.4537 473.609 52.4537H480.582C481.129 52.4537 481.402 52.5882 481.813 52.8572C482.086 53.1262 482.223 53.5297 482.223 54.0676C482.223 54.4711 481.949 54.8746 481.539 55.4126L466.5 69.4002L483.453 87.4227C483.863 87.8262 484.137 88.2297 484.137 88.6332C484.137 89.1711 484 89.4401 483.727 89.8436C483.453 90.1126 483.043 90.2471 482.633 90.2471H475.523C474.84 90.2471 474.293 90.1126 474.019 89.9781C473.746 89.8436 473.336 89.4401 472.789 89.0366L458.843 74.3766V88.4987C458.843 89.0367 458.706 89.4401 458.296 89.7091C457.886 90.1126 457.476 90.2471 457.066 90.2471H450.913C450.23 90.1126 449.819 89.9781 449.409 89.5746Z" fill="#333333"/>
</g>
<defs>
<clipPath id="clip0">
<rect width="484" height="121.585" fill="white"/>
</clipPath>
</defs>
</svg>
