<svg width="207" height="52" viewBox="0 0 207 52" fill="none" xmlns="http://www.w3.org/2000/svg">
<g clip-path="url(#clip0)">
<path d="M45.6686 52H7.19237C3.2161 52 0 48.8363 0 44.9248V7.07522C0 3.16372 3.2161 0 7.19237 0H45.6686C49.6449 0 52.861 3.16372 52.861 7.07522V44.9248C52.861 48.8363 49.6449 52 45.6686 52Z" fill="#8DC154"/>
<path d="M32.98 26.5173L38.4181 21.1677C39.0029 20.5925 39.0029 19.7297 38.4181 19.1544L36.8393 17.6013C36.2546 17.0261 35.3775 17.0261 34.7927 17.6013L29.3546 22.9509C28.7698 23.5261 28.7698 24.3889 29.3546 24.9642L30.9334 26.5173C31.5181 27.0925 32.4537 27.0925 32.98 26.5173Z" fill="white"/>
<path d="M20.1154 32.0969L11.5196 40.5527C10.9349 41.1279 10.9349 41.9908 11.5196 42.566L13.0984 44.1191C13.6832 44.6943 14.5603 44.6943 15.145 44.1191L23.7408 35.6633C24.3255 35.0881 24.3255 34.2253 23.7408 33.65L22.162 32.0969C21.6357 31.5217 20.7001 31.5217 20.1154 32.0969Z" fill="white"/>
<path d="M40.055 44.0042L41.5169 42.5662C42.1016 41.9909 42.1016 41.0131 41.5169 40.4378L21.9863 21.283C21.4016 20.7078 20.4075 20.7078 19.8228 21.283L18.3609 22.721C17.7762 23.2963 17.7762 24.2741 18.3609 24.8494L37.8914 44.0617C38.4762 44.637 39.4702 44.637 40.055 44.0042Z" fill="white"/>
<path d="M29.7635 12.1944L33.2135 8.80059C33.9737 8.0528 35.2601 8.0528 36.0203 8.80059L48.7092 21.2829C49.4694 22.0307 49.4694 23.2962 48.7092 24.0439L47.5982 25.1369C47.5398 25.1944 47.4228 25.1944 47.3643 25.1369C45.3177 23.7563 42.7448 23.4112 40.4059 24.159L39.5872 24.4466C39.5287 24.4466 39.4118 24.4466 39.3533 24.3891L29.7635 14.9555C29.0033 14.2077 29.0033 12.9997 29.7635 12.1944Z" fill="white"/>
<path d="M15.0282 27.0927C9.707 27.0927 5.37988 22.836 5.37988 17.6015C5.37988 12.367 9.707 8.11035 15.0282 8.11035C20.3494 8.11035 24.6765 12.367 24.6765 17.6015C24.6765 22.836 20.3494 27.0927 15.0282 27.0927ZM15.0282 12.482C12.1629 12.482 9.82395 14.7829 9.82395 17.6015C9.82395 20.4201 12.1629 22.721 15.0282 22.721C17.8934 22.721 20.2324 20.4201 20.2324 17.6015C20.174 14.7829 17.8934 12.482 15.0282 12.482Z" fill="white"/>
<path d="M15.028 27.6679C9.35594 27.6679 4.79492 23.1237 4.79492 17.6015C4.79492 12.0794 9.35594 7.53516 15.028 7.53516C20.7 7.53516 25.261 12.0794 25.261 17.6015C25.261 23.1237 20.6415 27.6679 15.028 27.6679ZM15.028 8.6856C9.99916 8.6856 5.96441 12.7121 5.96441 17.6015C5.96441 22.4909 10.0576 26.5175 15.028 26.5175C20.0568 26.5175 24.0915 22.4909 24.0915 17.6015C24.0915 12.7121 19.9983 8.6856 15.028 8.6856Z" fill="white"/>
<path d="M61.3985 38.3097C61.223 38.1371 61.1646 37.9645 61.1646 37.792V17.2566C61.1646 17.0265 61.223 16.8539 61.3985 16.7389C61.5739 16.6238 61.7493 16.5088 61.9247 16.5088H64.79C65.0239 16.5088 65.1993 16.5663 65.3162 16.7389C65.4332 16.8539 65.5501 17.0265 65.5501 17.2566V24.3318C66.8366 22.8362 68.5324 22.0884 70.6374 22.0884C72.5671 22.0884 74.1459 22.7212 75.2569 23.9867C76.4264 25.2522 77.0112 26.9203 77.0112 29.1061V37.8495C77.0112 38.0796 76.9527 38.2521 76.7773 38.3672C76.6603 38.5398 76.4849 38.5973 76.251 38.5973H73.3857C73.1518 38.5973 72.9764 38.5398 72.801 38.3672C72.6256 38.1946 72.5671 38.0221 72.5671 37.8495V29.2787C72.5671 28.0707 72.2747 27.1504 71.69 26.4601C71.1052 25.7698 70.2281 25.4247 69.1171 25.4247C68.0646 25.4247 67.1874 25.7698 66.5442 26.4601C65.901 27.1504 65.5501 28.0707 65.5501 29.2787V37.8495C65.5501 38.0796 65.4917 38.2521 65.3162 38.3672C65.1408 38.4822 65.0239 38.5973 64.79 38.5973H61.9247C61.6908 38.5398 61.5154 38.4822 61.3985 38.3097Z" fill="#333333"/>
<path d="M82.8584 38.1948C81.9813 37.7921 81.2796 37.2169 80.7533 36.4691C80.2271 35.7213 79.9932 34.9735 79.9932 34.0532C79.9932 32.6727 80.5779 31.5222 81.7474 30.6594C82.9169 29.7965 84.4957 29.2213 86.5423 28.8762L90.8694 28.2435V27.6107C90.8694 26.7479 90.6355 26.0576 90.1677 25.5974C89.6999 25.1373 88.9398 24.9072 87.9457 24.9072C87.244 24.9072 86.7177 25.0222 86.2499 25.2523C85.8406 25.4824 85.4898 25.77 85.1974 26.0001C84.905 26.2877 84.7881 26.4027 84.6711 26.5178C84.6127 26.7479 84.4372 26.8629 84.2033 26.8629H81.7474C81.572 26.8629 81.3966 26.8054 81.2796 26.6904C81.1627 26.5753 81.0457 26.4027 81.0457 26.1727C81.0457 25.655 81.3381 25.0797 81.8059 24.3895C82.2737 23.7567 83.0923 23.1815 84.0864 22.6638C85.1389 22.2036 86.3669 21.916 87.8872 21.916C90.3432 21.916 92.1559 22.4912 93.3254 23.5842C94.4364 24.6771 95.0211 26.1151 95.0211 27.8983V37.6771C95.0211 37.9072 94.9627 38.0797 94.7872 38.1948C94.6118 38.3098 94.4949 38.4249 94.261 38.4249H91.6296C91.3957 38.4249 91.2203 38.3673 91.1033 38.1948C90.9279 38.0222 90.8694 37.8496 90.8694 37.6771V36.4691C90.4016 37.1594 89.7584 37.6771 88.9398 38.0797C88.1211 38.4824 87.0686 38.7125 85.7821 38.7125C84.7296 38.885 83.7355 38.655 82.8584 38.1948ZM89.6999 34.7435C90.4601 33.9957 90.811 32.9027 90.811 31.5222V30.8895L87.6533 31.4072C85.2559 31.7523 84.0279 32.5576 84.0279 33.8231C84.0279 34.5134 84.3203 34.9735 84.8466 35.3762C85.4313 35.7213 86.0745 35.8939 86.8347 35.8939C88.0042 35.8939 88.9398 35.4912 89.6999 34.7435Z" fill="#333333"/>
<path d="M100.635 36.9866C99.2316 35.7211 98.5299 33.9955 98.413 31.7521L98.3545 30.4866L98.413 29.2211C98.4714 26.9778 99.2316 25.2521 100.635 23.9866C102.038 22.7211 103.851 22.0884 106.19 22.0884C107.827 22.0884 109.231 22.376 110.4 22.9512C111.57 23.5264 112.388 24.2167 112.973 25.0795C113.558 25.9424 113.85 26.7477 113.85 27.4955C113.85 27.7255 113.792 27.8981 113.616 28.0132C113.441 28.1857 113.266 28.2432 113.09 28.2432H110.283C110.049 28.2432 109.874 28.1857 109.757 28.1282C109.64 28.0132 109.523 27.8406 109.465 27.6105C109.172 26.8052 108.704 26.23 108.237 25.8848C107.71 25.5397 107.067 25.3671 106.249 25.3671C105.196 25.3671 104.319 25.7123 103.734 26.345C103.149 27.0353 102.799 28.0132 102.799 29.3937L102.74 30.5441L102.799 31.5795C102.916 34.2831 104.085 35.6061 106.249 35.6061C107.067 35.6061 107.71 35.4335 108.237 35.0884C108.763 34.7432 109.172 34.168 109.465 33.3627C109.523 33.1326 109.64 32.9601 109.757 32.845C109.874 32.73 110.049 32.6724 110.283 32.6724H113.09C113.324 32.6724 113.499 32.73 113.616 32.9025C113.792 33.0751 113.85 33.2477 113.85 33.4202C113.792 34.168 113.499 34.9158 112.973 35.7786C112.447 36.6415 111.57 37.3317 110.459 37.9645C109.348 38.5397 107.886 38.8848 106.19 38.8848C103.851 38.8848 102.038 38.2521 100.635 36.9866Z" fill="#333333"/>
<path d="M117.417 38.3097C117.242 38.1371 117.183 37.9645 117.183 37.792V17.2566C117.183 17.0265 117.242 16.8539 117.417 16.7389C117.592 16.6238 117.768 16.5088 117.943 16.5088H120.575C120.809 16.5088 120.984 16.5663 121.101 16.7389C121.276 16.9114 121.335 17.084 121.335 17.2566V27.8982L126.598 22.9513C126.656 22.8937 126.773 22.8362 126.89 22.7212C127.007 22.6061 127.182 22.5486 127.299 22.4911C127.416 22.4336 127.592 22.4336 127.767 22.4336H130.749C130.983 22.4336 131.1 22.4911 131.275 22.6061C131.392 22.7212 131.451 22.8937 131.451 23.1238C131.451 23.2964 131.334 23.469 131.159 23.6991L124.726 29.6814L131.977 37.3893C132.153 37.5619 132.27 37.7345 132.27 37.907C132.27 38.1371 132.211 38.2522 132.094 38.4247C131.977 38.5398 131.802 38.5973 131.626 38.5973H128.586C128.293 38.5973 128.059 38.5398 127.942 38.4822C127.825 38.4247 127.65 38.2521 127.416 38.0796L121.452 31.8097V37.8495C121.452 38.0796 121.393 38.2521 121.218 38.3672C121.042 38.5398 120.867 38.5973 120.692 38.5973H118.06C117.709 38.5398 117.534 38.4822 117.417 38.3097Z" fill="#333333"/>
<path d="M138 37.7919L133.497 23.3539C133.497 23.2963 133.439 23.1813 133.439 23.0662C133.439 22.8937 133.497 22.7211 133.614 22.6061C133.731 22.491 133.907 22.376 134.082 22.376H136.48C136.714 22.376 136.889 22.4335 137.006 22.5485C137.181 22.6636 137.24 22.8362 137.298 22.9512L140.339 33.1901L143.614 23.0662C143.672 22.8937 143.789 22.7211 143.964 22.6061C144.14 22.491 144.315 22.376 144.608 22.376H146.245C146.479 22.376 146.713 22.4335 146.888 22.6061C147.064 22.7211 147.122 22.8937 147.181 23.0662L150.455 33.1901L153.496 22.9512C153.554 22.7786 153.613 22.6636 153.788 22.5485C153.964 22.4335 154.139 22.376 154.373 22.376H156.712C156.887 22.376 157.063 22.4335 157.18 22.6061C157.297 22.7786 157.414 22.8937 157.414 23.0662L157.355 23.3539L152.853 37.7919C152.794 38.022 152.619 38.2521 152.502 38.3671C152.385 38.4822 152.151 38.5972 151.858 38.5972H149.753C149.227 38.5972 148.876 38.3096 148.701 37.8494L145.426 28.0707L142.152 37.8494C141.976 38.3671 141.625 38.5972 141.099 38.5972H139.053C138.526 38.5397 138.175 38.3096 138 37.7919Z" fill="#333333"/>
<path d="M161.565 36.9865C160.22 35.721 159.519 34.0529 159.402 31.8095L159.343 30.429L159.402 29.0485C159.519 26.8626 160.22 25.137 161.624 23.929C163.027 22.721 164.898 22.0308 167.354 22.0308C169.752 22.0308 171.681 22.6635 173.026 23.929C174.371 25.1945 175.131 26.9201 175.248 29.0485C175.248 29.2785 175.307 29.7387 175.307 30.429C175.307 31.1193 175.307 31.5219 175.248 31.8095C175.131 33.9954 174.43 35.721 173.085 36.9865C171.74 38.252 169.81 38.8272 167.354 38.8272C164.84 38.8847 162.91 38.252 161.565 36.9865ZM169.869 34.6856C170.453 33.9954 170.804 33.0175 170.804 31.6945C170.804 31.4644 170.863 31.0617 170.863 30.4865C170.863 29.9113 170.863 29.5086 170.804 29.2786C170.746 27.9555 170.453 26.9201 169.81 26.2299C169.225 25.5396 168.348 25.1945 167.237 25.1945C166.126 25.1945 165.249 25.5396 164.664 26.2299C164.08 26.9201 163.729 27.9555 163.67 29.2786L163.729 30.4865L163.787 31.6945C163.846 33.0175 164.138 33.9954 164.781 34.6856C165.366 35.3759 166.243 35.721 167.354 35.721C168.407 35.721 169.284 35.3759 169.869 34.6856Z" fill="#333333"/>
<path d="M178.991 38.3096C178.815 38.137 178.757 37.9645 178.757 37.7919V23.1813C178.757 22.9512 178.815 22.7786 178.991 22.6061C179.166 22.4335 179.342 22.376 179.517 22.376H182.09C182.324 22.376 182.499 22.4335 182.675 22.6061C182.85 22.7786 182.909 22.9512 182.909 23.1813V24.4468C183.961 23.0662 185.481 22.376 187.47 22.376H188.814C189.048 22.376 189.224 22.4335 189.341 22.6061C189.458 22.7211 189.575 22.8937 189.575 23.1238V25.3671C189.575 25.5972 189.516 25.7698 189.341 25.8848C189.224 26.0574 189.048 26.1149 188.814 26.1149H186.3C185.306 26.1149 184.546 26.4025 183.961 26.9777C183.376 27.553 183.084 28.3008 183.084 29.2786V37.7919C183.084 38.022 183.025 38.1946 182.85 38.3096C182.675 38.4822 182.499 38.5397 182.324 38.5397H179.517C179.283 38.5397 179.108 38.4822 178.991 38.3096Z" fill="#333333"/>
<path d="M192.206 38.3097C192.031 38.1371 191.972 37.9645 191.972 37.792V17.2566C191.972 17.0265 192.031 16.8539 192.206 16.7389C192.382 16.6238 192.557 16.5088 192.732 16.5088H195.364C195.598 16.5088 195.773 16.5663 195.89 16.7389C196.065 16.9114 196.124 17.084 196.124 17.2566V27.8982L201.387 22.9513C201.445 22.8937 201.562 22.8362 201.679 22.7212C201.796 22.6061 201.971 22.5486 202.088 22.4911C202.205 22.4336 202.381 22.4336 202.556 22.4336H205.538C205.772 22.4336 205.889 22.4911 206.065 22.6061C206.181 22.7212 206.24 22.8937 206.24 23.1238C206.24 23.2964 206.123 23.469 205.948 23.6991L199.515 29.6814L206.766 37.3893C206.942 37.5619 207.059 37.7345 207.059 37.907C207.059 38.1371 207 38.2522 206.883 38.4247C206.766 38.5398 206.591 38.5973 206.415 38.5973H203.375C203.082 38.5973 202.848 38.5398 202.732 38.4822C202.615 38.4247 202.439 38.2521 202.205 38.0796L196.241 31.8097V37.8495C196.241 38.0796 196.182 38.2521 196.007 38.3672C195.832 38.5398 195.656 38.5973 195.481 38.5973H192.849C192.557 38.5398 192.382 38.4822 192.206 38.3097Z" fill="#333333"/>
</g>
<defs>
<clipPath id="clip0">
<rect width="207" height="52" fill="white"/>
</clipPath>
</defs>
</svg>
